<svg width="13" height="12" viewBox="0 0 13 12" fill="none" xmlns="http://www.w3.org/2000/svg">
<path d="M13 0.65V6.3375C13 6.3806 12.9829 6.42193 12.9524 6.4524C12.9219 6.48288 12.8806 6.5 12.8375 6.5H0.1625C0.119402 6.5 0.0780698 6.48288 0.0475952 6.4524C0.0171205 6.42193 0 6.3806 0 6.3375V0.65C0 0.477609 0.0684819 0.312279 0.190381 0.190381C0.312279 0.0684819 0.477609 0 0.65 0H12.35C12.5224 0 12.6877 0.0684819 12.8096 0.190381C12.9315 0.312279 13 0.477609 13 0.65Z" fill="#B4B1FF"/>
<path d="M0 7.21145V8.34895C0 8.52134 0.0684819 8.68667 0.190381 8.80857C0.312279 8.93047 0.477609 8.99895 0.65 8.99895H4.68C4.70371 8.99864 4.72721 9.00353 4.74883 9.01327C4.77046 9.02301 4.78969 9.03737 4.80517 9.05533C4.82066 9.0733 4.83203 9.09443 4.83847 9.11726C4.84492 9.14008 4.8463 9.16404 4.8425 9.18745L4.6215 10.4875C4.58993 10.6015 4.52784 10.7047 4.44194 10.786C4.35603 10.8673 4.24956 10.9237 4.134 10.949C4.06249 10.9669 3.99943 11.0091 3.95557 11.0684C3.91171 11.1277 3.88977 11.2003 3.8935 11.274C3.90013 11.3601 3.93953 11.4405 4.00361 11.4986C4.06769 11.5566 4.15157 11.5879 4.238 11.586H8.7425C8.82893 11.5879 8.91281 11.5566 8.97689 11.4986C9.04097 11.4405 9.08037 11.3601 9.087 11.274C9.09073 11.2003 9.06879 11.1277 9.02493 11.0684C8.98107 11.0091 8.91801 10.9669 8.8465 10.949C8.73094 10.9237 8.62447 10.8673 8.53856 10.786C8.45266 10.7047 8.39057 10.6015 8.359 10.4875L8.138 9.18745C8.13369 9.1623 8.13535 9.13649 8.14287 9.11211C8.15038 9.08773 8.16354 9.06546 8.18126 9.0471C8.19898 9.02875 8.22077 9.01483 8.24488 9.00646C8.26898 8.99809 8.29472 8.99552 8.32 8.99895H12.35C12.5224 8.99895 12.6877 8.93047 12.8096 8.80857C12.9315 8.68667 13 8.52134 13 8.34895V7.21145C13 7.16835 12.9829 7.12702 12.9524 7.09655C12.9219 7.06607 12.8806 7.04895 12.8375 7.04895H0.1625C0.119402 7.04895 0.0780698 7.06607 0.0475952 7.09655C0.0171205 7.12702 0 7.16835 0 7.21145Z" fill="#4640DE"/>
</svg>
