<svg width="12" height="10" viewBox="0 0 12 10" fill="none" xmlns="http://www.w3.org/2000/svg">
<path d="M1.83599 0.416138C1.83567 0.416138 1.8353 0.416138 1.83498 0.416138C1.72148 0.416138 1.61474 0.46038 1.53413 0.540785C1.45263 0.622078 1.40775 0.73032 1.40775 0.845553V7.28456C1.40775 7.52069 1.60059 7.71325 1.83769 7.71386C2.8372 7.71624 4.5118 7.92457 5.66703 9.1335V2.39489C5.66703 2.31485 5.64659 2.23966 5.608 2.17744C4.65984 0.650482 2.83777 0.418481 1.83599 0.416138Z" fill="#B4B1FF"/>
<path d="M10.5926 7.2846V0.845553C10.5926 0.73032 10.5477 0.622078 10.4662 0.540785C10.3856 0.46038 10.2788 0.416138 10.1654 0.416138H10.1644C9.16265 0.418522 7.34058 0.650522 6.39238 2.17748C6.35379 2.2397 6.33339 2.31489 6.33339 2.39493V9.1335C7.48862 7.92457 9.16321 7.71624 10.1627 7.71386C10.3998 7.71325 10.5926 7.52069 10.5926 7.2846Z" fill="#B4B1FF"/>
<path d="M11.5706 1.90112H11.2593V7.28462C11.2593 7.88749 10.7681 8.37908 10.1643 8.38058C9.31646 8.3826 7.91855 8.54838 6.92853 9.48539C8.64078 9.06616 10.4458 9.33868 11.4745 9.57311C11.6029 9.60236 11.7357 9.57214 11.8386 9.49012C11.9411 9.4083 11.9999 9.286 11.9999 9.15472V2.33046C12 2.09373 11.8073 1.90112 11.5706 1.90112Z" fill="#4640DE"/>
<path d="M0.740689 7.28462V1.90112H0.429335C0.192647 1.90112 0 2.09373 0 2.33046V9.1546C0 9.28592 0.0588285 9.40818 0.161374 9.49C0.264203 9.57198 0.396809 9.60232 0.525456 9.57299C1.55415 9.33852 3.3592 9.06604 5.07137 9.48527C4.08139 8.5483 2.68348 8.38256 1.83568 8.38054C1.23192 8.37909 0.740689 7.88749 0.740689 7.28462Z" fill="#4640DE"/>
</svg>
