<svg width="17" height="13" viewBox="0 0 17 13" fill="none" xmlns="http://www.w3.org/2000/svg">
<path d="M15.7545 9.22412C15.5262 8.99751 15.3753 8.70459 15.3234 8.38715C15.2714 8.06971 15.3211 7.74398 15.4652 7.45643C15.6582 7.05033 15.7518 6.60417 15.7384 6.15477C15.7388 5.69351 15.6286 5.23887 15.417 4.829C15.3186 4.60668 15.2719 4.36492 15.2804 4.12193C15.2797 3.91574 15.3214 3.7116 15.4029 3.52222C15.4845 3.33284 15.6042 3.16228 15.7545 3.02114C15.9091 2.87777 16.0181 2.69217 16.0682 2.48736C16.1182 2.28256 16.1071 2.06756 16.0361 1.86905C15.965 1.67054 15.8373 1.49725 15.6687 1.37068C15.5001 1.2441 15.298 1.16981 15.0876 1.15703H15.0072C14.648 1.14355 14.2898 1.2037 13.9546 1.3338C13.4428 1.57266 12.878 1.67524 12.3149 1.6316C11.7518 1.58796 11.2095 1.39958 10.7407 1.08472C10.6438 1.03686 10.5499 0.983198 10.4594 0.924018C9.78767 0.345374 8.93539 0.0186683 8.04896 0C7.16253 0.0186683 6.31025 0.345374 5.63847 0.924018C5.5567 0.993377 5.47084 1.05777 5.38136 1.11686C4.91247 1.43172 4.3702 1.6201 3.8071 1.66374C3.244 1.70738 2.67917 1.6048 2.16738 1.36594C1.84451 1.22911 1.49759 1.15809 1.14694 1.15703H1.01034C0.804573 1.17349 0.607974 1.2492 0.444307 1.375C0.28064 1.5008 0.156911 1.67131 0.0880747 1.86592C0.019238 2.06053 0.00823973 2.27092 0.0564094 2.47164C0.104579 2.67237 0.209855 2.85486 0.359513 2.99703C0.598947 3.23511 0.757309 3.54256 0.812116 3.87573C0.866924 4.2089 0.815394 4.55088 0.664841 4.85311C0.465555 5.25818 0.361139 5.70333 0.359513 6.15477C0.3569 6.58336 0.453133 7.00679 0.640736 7.39215C0.744364 7.61644 0.799141 7.8602 0.801435 8.10726C0.801773 8.53162 0.634244 8.93889 0.335408 9.24019C0.181408 9.391 0.0743405 9.58316 0.0271244 9.79348C-0.0200917 10.0038 -0.00543924 10.2233 0.0693138 10.4255C0.144067 10.6276 0.275726 10.8038 0.448407 10.9329C0.621088 11.0619 0.827411 11.1381 1.04248 11.1525H1.12283C1.47132 11.1617 1.81816 11.1016 2.14327 10.9757C2.66406 10.7346 3.23859 10.633 3.8105 10.6809C4.3824 10.7288 4.93203 10.9245 5.40546 11.2489C5.46974 11.3052 5.55009 11.3534 5.61437 11.4177C6.28614 11.9963 7.13842 12.323 8.02485 12.3417C8.91129 12.323 9.76356 11.9963 10.4353 11.4177C10.4996 11.3534 10.58 11.3052 10.6442 11.2489C11.123 10.9158 11.6814 10.7151 12.2627 10.6671C12.844 10.6191 13.4277 10.7256 13.9546 10.9757C14.2775 11.1126 14.6244 11.1836 14.9751 11.1846H15.0474C15.271 11.1757 15.4868 11.1003 15.6673 10.968C15.8477 10.8358 15.9847 10.6528 16.0606 10.4423C16.1365 10.2318 16.1479 10.0035 16.0934 9.7865C16.0389 9.56951 15.9209 9.3737 15.7545 9.22412ZM14.4769 9.36875C14.4769 9.4753 14.4346 9.57748 14.3592 9.65282C14.2839 9.72817 14.1817 9.77049 14.0752 9.77049H2.02275C1.9162 9.77049 1.81401 9.72817 1.73867 9.65282C1.66333 9.57748 1.621 9.4753 1.621 9.36875V2.94079C1.621 2.83424 1.66333 2.73205 1.73867 2.65671C1.81401 2.58137 1.9162 2.53904 2.02275 2.53904H14.0752C14.1817 2.53904 14.2839 2.58137 14.3592 2.65671C14.4346 2.73205 14.4769 2.83424 14.4769 2.94079V9.36875Z" fill="#4640DE"/>
<path d="M11.2302 5.12728V8.49392C11.2302 8.52376 11.2184 8.55237 11.1973 8.57346C11.1762 8.59456 11.1476 8.60641 11.1178 8.60641H4.11128C4.08787 8.60461 4.06549 8.59601 4.0469 8.58166C4.02831 8.56732 4.01431 8.54786 4.00663 8.52567C3.99895 8.50347 3.99792 8.47952 4.00366 8.45676C4.00941 8.43399 4.02168 8.41339 4.03897 8.3975L7.30919 5.77811C7.3271 5.76468 7.34839 5.7565 7.37068 5.75449C7.39297 5.75248 7.41539 5.75672 7.43541 5.76673C7.45543 5.77674 7.47226 5.79213 7.48403 5.81117C7.4958 5.83021 7.50203 5.85215 7.50203 5.87453V7.56187C7.50203 7.5917 7.51388 7.62031 7.53498 7.64141C7.55607 7.66251 7.58468 7.67436 7.61452 7.67436H8.31356C8.34339 7.67436 8.372 7.66251 8.3931 7.64141C8.4142 7.62031 8.42605 7.5917 8.42605 7.56187V7.17619C8.42508 7.15813 8.42819 7.14009 8.43515 7.1234C8.4421 7.10671 8.45272 7.0918 8.46622 7.07977L11.0294 5.03086C11.0471 5.01491 11.0692 5.0046 11.0928 5.00122C11.1165 4.99783 11.1406 5.00154 11.1621 5.01187C11.1836 5.0222 11.2015 5.03868 11.2137 5.05922C11.2258 5.07977 11.2316 5.10345 11.2302 5.12728Z" fill="#B4B1FF"/>
<path d="M9.01335 4.9576C9.2796 4.9576 9.49544 4.74176 9.49544 4.4755C9.49544 4.20925 9.2796 3.99341 9.01335 3.99341C8.74709 3.99341 8.53125 4.20925 8.53125 4.4755C8.53125 4.74176 8.74709 4.9576 9.01335 4.9576Z" fill="#507EFE"/>
</svg>
